Coordinates
version=1
nRows=16
nColumns=22
inDegrees=yes

Units are S.I. units (second, meters, Newtons, ...)
If the header above contains a line with 'inDegrees', this indicates whether rotational values are in degrees (yes) or radians (no).

endheader
time	pelvis_tilt	pelvis_list	pelvis_rotation	pelvis_tx	pelvis_ty	pelvis_tz	hip_flexion_r	hip_adduction_r	hip_rotation_r	knee_angle_r	ankle_angle_r	subtalar_angle_r	hip_flexion_l	hip_adduction_l	hip_rotation_l	knee_angle_l	ankle_angle_l	subtalar_angle_l	lumbar_extension	lumbar_bending	lumbar_rotation
      0.01000000	      6.19541377	     -3.31354358	      4.41140140	      0.20669847	      0.95453689	      1.17366764	     -5.23458348	      4.27343736	    -12.64369964	    -10.82477708	      9.67383581	      1.96437703	     -4.68234142	     -4.21263313	    -14.08094924	    -14.84623325	     21.09072711	     -7.54457144	    -11.18646273	      2.83321984	    -11.96423453
      0.02000000	      6.19668772	     -3.32627062	      4.42768035	      0.20661156	      0.95454811	      1.17367842	     -5.22929145	      4.29280218	    -12.63788552	    -10.82362507	      9.69887103	      1.97281150	     -4.65768859	     -4.23443826	    -14.06621016	    -14.87888484	     21.04908157	     -7.55338848	    -11.19427655	      2.83685442	    -11.99742498
      0.03000000	      6.19644218	     -3.32926665	      4.42382020	      0.20656181	      0.95455806	      1.17369552	     -5.22492993	      4.29653872	    -12.64003674	    -10.82125575	      9.69924031	      1.97348990	     -4.65469628	     -4.23712183	    -14.06515813	    -14.87868156	     21.04908922	     -7.55357332	    -11.19649324	      2.82889651	    -12.00041784
      0.04000000	      6.19622406	     -3.33194067	      4.42241981	      0.20652403	      0.95456252	      1.17370782	     -5.22129180	      4.29957386	    -12.64115073	    -10.82140825	      9.69935899	      1.97446360	     -4.65110521	     -4.24058858	    -14.06408446	    -14.88044533	     21.04873616	     -7.55392400	    -11.19617455	      2.82078945	    -12.00481586
      0.05000000	      6.19736211	     -3.33345016	      4.42237151	      0.20649736	      0.95456438	      1.17368868	     -5.22061290	      4.29917563	    -12.64119567	    -10.82116661	      9.69936463	      1.97456004	     -4.65077636	     -4.24044766	    -14.06406948	    -14.88072910	     21.04870853	     -7.55395309	    -11.19553205	      2.82001577	    -12.00528763
      0.06000000	      6.19697861	     -3.33590554	      4.41833386	      0.20648915	      0.95456069	      1.17369544	     -5.21935500	      4.30061082	    -12.64301522	    -10.82121660	      9.69925493	      1.97600391	     -4.64892644	     -4.24334434	    -14.06360621	    -14.88570657	     21.04863296	     -7.55442604	    -11.18972254	      2.81464498	    -12.01262284
      0.07000000	      6.19764497	     -3.33737548	      4.41839652	      0.20647214	      0.95455505	      1.17367206	     -5.21927372	      4.29981589	    -12.64312622	    -10.82093081	      9.69925868	      1.97612122	     -4.64863013	     -4.24304841	    -14.06378690	    -14.88591295	     21.04869203	     -7.55445557	    -11.18893689	      2.81445143	    -12.01301645
      0.08000000	      6.18790621	     -3.33873923	      4.42179117	      0.20650841	      0.95453087	      1.17363152	     -5.22261931	      4.29878991	    -12.65961244	    -10.79840349	      9.69996982	      1.98568627	     -4.63767717	     -4.24383912	    -14.07910617	    -14.89201248	     21.05737930	     -7.55661243	    -11.16261247	      2.81763227	    -12.03286698
      0.09000000	      6.18943431	     -3.34035835	      4.42089831	      0.20651464	      0.95452438	      1.17360304	     -5.22556629	      4.29676407	    -12.66034488	    -10.79865681	      9.69968997	      1.98670465	     -4.63905159	     -4.24427922	    -14.07833942	    -14.89504952	     21.05831659	     -7.55662647	    -11.15668249	      2.81887506	    -12.03234506
      0.10000000	      6.19033916	     -3.34177933	      4.41865844	      0.20653472	      0.95451555	      1.17357169	     -5.23182784	      4.29518820	    -12.66431003	    -10.79249550	      9.69955176	      1.98895331	     -4.64127821	     -4.24310451	    -14.07898668	    -14.89793848	     21.06110961	     -7.55658875	    -11.14703404	      2.82132730	    -12.02902876
      0.11000000	      6.18862779	     -3.34285833	      4.41962263	      0.20656787	      0.95450539	      1.17354212	     -5.24595892	      4.29508237	    -12.67544043	    -10.76634453	      9.69926167	      1.99501253	     -4.64272155	     -4.24292906	    -14.08415897	    -14.89575432	     21.06907076	     -7.55636626	    -11.13318102	      2.82157867	    -12.01508432
      0.12000000	      6.18905143	     -3.34415375	      4.41956928	      0.20655274	      0.95450133	      1.17352536	     -5.24657527	      4.29411237	    -12.67550715	    -10.76576411	      9.69919811	      1.99518182	     -4.64230163	     -4.24337944	    -14.08420186	    -14.89539366	     21.06924417	     -7.55635142	    -11.13294001	      2.82112422	    -12.01481857
      0.13000000	      6.18769976	     -3.34638464	      4.42198037	      0.20657901	      0.95450130	      1.17351339	     -5.26858729	      4.29924919	    -12.68297373	    -10.72248507	      9.69450608	      2.00544877	     -4.64401535	     -4.24595785	    -14.08651074	    -14.89188806	     21.07834618	     -7.55476387	    -11.12275471	      2.81921341	    -11.99136183
      0.14000000	      6.18912046	     -3.34665228	      4.42580816	      0.20656882	      0.95450524	      1.17347569	     -5.27308851	      4.29746787	    -12.68096035	    -10.71804768	      9.69255900	      2.00757178	     -4.64457267	     -4.24463184	    -14.08666315	    -14.89204538	     21.07928217	     -7.55429500	    -11.12053533	      2.82457189	    -11.98807689
      0.15000000	      6.18702678	     -3.34854578	      4.42943113	      0.20654957	      0.95450921	      1.17345545	     -5.28314550	      4.30128163	    -12.68089658	    -10.69095588	      9.68724523	      2.01426321	     -4.64089230	     -4.24561637	    -14.08382891	    -14.89000124	     21.08108992	     -7.55271123	    -11.11986000	      2.82772607	    -11.97510184
      0.16000000	      6.18777070	     -3.34890463	      4.42973294	      0.20653408	      0.95451635	      1.17344588	     -5.28435748	      4.30098404	    -12.68059731	    -10.69067696	      9.68689968	      2.01455480	     -4.64054846	     -4.24584562	    -14.08358519	    -14.88996363	     21.08108704	     -7.55264612	    -11.11863097	      2.82794326	    -11.97475349
